<?xml version="1.0" encoding="UTF-8" standalone="no"?>
<svg
   xmlns:dc="http://purl.org/dc/elements/1.1/"
   xmlns:cc="http://creativecommons.org/ns#"
   xmlns:rdf="http://www.w3.org/1999/02/22-rdf-syntax-ns#"
   xmlns:svg="http://www.w3.org/2000/svg"
   xmlns="http://www.w3.org/2000/svg"
   xmlns:sodipodi="http://sodipodi.sourceforge.net/DTD/sodipodi-0.dtd"
   xmlns:inkscape="http://www.inkscape.org/namespaces/inkscape"
   width="32"
   height="32"
   viewBox="0 0 32 32"
   fill="none"
   version="1.1"
   id="svg827"
   sodipodi:docname="crone.svg"
   inkscape:version="0.92.4 (5da689c313, 2019-01-14)">
  <metadata
     id="metadata833">
    <rdf:RDF>
      <cc:Work
         rdf:about="">
        <dc:format>image/svg+xml</dc:format>
        <dc:type
           rdf:resource="http://purl.org/dc/dcmitype/StillImage" />
        <dc:title></dc:title>
      </cc:Work>
    </rdf:RDF>
  </metadata>
  <defs
     id="defs831" />
  <sodipodi:namedview
     pagecolor="#ffffff"
     bordercolor="#666666"
     borderopacity="1"
     objecttolerance="10"
     gridtolerance="10"
     guidetolerance="10"
     inkscape:pageopacity="0"
     inkscape:pageshadow="2"
     inkscape:window-width="1920"
     inkscape:window-height="1017"
     id="namedview829"
     showgrid="false"
     inkscape:zoom="13.25"
     inkscape:cx="9.9267252"
     inkscape:cy="6.8464318"
     inkscape:window-x="-8"
     inkscape:window-y="-8"
     inkscape:window-maximized="1"
     inkscape:current-layer="svg827" />
  <circle
     cx="16"
     cy="16"
     r="16"
     fill="#EE4713"
     id="circle825" />
  <path
     inkscape:connector-curvature="0"
     style="clip-rule:evenodd;fill:#ffffff;fill-rule:evenodd"
     d="m 8.9011139,9.8831523 c -0.264565,-0.26205 -0.707655,-0.01773 -0.627246,0.3458597 l 2.7280561,12.33555 c 0.03781,0.171 0.1894,0.2927 0.36452,0.2927 h 9.26709 c 0.1751,0 0.3267,-0.1217 0.3645,-0.2927 l 2.7281,-12.33555 c 0.0804,-0.3635897 -0.3627,-0.6079097 -0.6273,-0.3458597 l -2.9112,2.8834897 c -0.1039,0.10294 -0.2714,0.10294 -0.3753,0 l -3.54962,-3.5158177 c -0.1455,-0.144115 -0.37994,-0.144115 -0.52544,0 l -3.54963,3.5158177 c -0.10393,0.10294 -0.27138,0.10294 -0.37531,0 z m 4.6455401,9.7741097 c -0.11782,0 -0.21333,0.0955 -0.21333,0.2133 v 0.64 c 0,0.1179 0.09551,0.2134 0.21333,0.2134 h 4.90668 c 0.1178,0 0.2133,-0.0955 0.2133,-0.2134 v -0.64 c 0,-0.1178 -0.0955,-0.2133 -0.2133,-0.2133 z"
     id="path845" />
</svg>
